<svg xmlns="http://www.w3.org/2000/svg" xmlns:xlink="http://www.w3.org/1999/xlink" width="285" height="285" viewBox="0 0 285 285">
  <defs>
    <linearGradient id="linear-gradient" x1="0.5" x2="0.5" y2="1" gradientUnits="objectBoundingBox">
      <stop offset="0" stop-color="#23ed95"/>
      <stop offset="1" stop-color="#173dbc"/>
    </linearGradient>
  </defs>
  <g id="Group_80" data-name="Group 80" transform="translate(-709 -2144)">
    <circle id="Ellipse_19" data-name="Ellipse 19" cx="142.5" cy="142.5" r="142.5" transform="translate(709 2144)" fill="#e6ecff"/>
    <path id="Path_217" data-name="Path 217" d="M78.212,537.076,10.3,497.871a9.406,9.406,0,0,0-8.542,0c-2.352,1.368-2.341,3.58.025,4.948l67.91,39.209a9.435,9.435,0,0,0,8.546,0C80.592,540.663,80.578,538.429,78.212,537.076Z" transform="translate(784.457 1855.487)" fill="#ed2623"/>
    <path id="Path_230" data-name="Path 230" d="M93.8,264.2c13.547,7.84,24.6-6.087,24.641-21.662s.112-38.776-24.434-52.945-24.6,9.039-24.641,24.613S80.268,256.373,93.8,264.2Z" transform="translate(819.998 1986.57)" fill="#707bbf"/>
    <path id="Path_231" data-name="Path 231" d="M115.81,348.99a29.9,29.9,0,0,0-9.879-15.77,2.8,2.8,0,0,0-3.327-.106c-5.219,3.4-15.446.51-22.054-3.3-7.04-4.083-18.145-13.883-22.939-23.947a2.834,2.834,0,0,0-1.758-1.506c-2.688-.767-8.871-1.842-10.568,3.92s-4.615,15.681-5.875,20a2.727,2.727,0,0,0,1.26,3.142l76.3,44.052a2.739,2.739,0,0,0,4.055-2.9C119.82,366.446,117.815,356.685,115.81,348.99Z" transform="translate(833.229 1934.41)" fill="#707bbf"/>
    <path id="Path_218" data-name="Path 218" d="M188.7,1.977,147.214,49.413a5.767,5.767,0,0,0-1.432,3.766l-.122,27.294a5.75,5.75,0,0,0,2.864,5.012l18.058,10.429a5.775,5.775,0,0,0,4.872.415l77.473-28.519a5.757,5.757,0,0,0,3.77-5.37L252.811,37a5.75,5.75,0,0,0-2.864-5.012L195.9.781a5.75,5.75,0,0,0-7.2,1.2Z" transform="translate(690.946 2174.45)" opacity="0.34" fill="url(#linear-gradient)"/>
    <path id="Path_219" data-name="Path 219" d="M87.835,103.244v.241a8.445,8.445,0,0,0-.032-.943v-.054c-.036-.565-.089-.921-.093-.943a.116.116,0,0,1,0-.036.539.539,0,0,0-.032-.22c-.025-.162-.05-.327-.078-.5v.036a1.366,1.366,0,0,0-.036-.216l-.071-.324c-.029-.14-.057-.281-.089-.421l-.043-.194c-.064-.3-.178-.68-.264-.972-.036-.13-.078-.263-.121-.4a.452.452,0,0,0-.046-.144c-.043-.133-.089-.27-.139-.4h0l-.086-.27a21.981,21.981,0,0,0-2.138-4.354l-.139-.223c-.1-.151-.2-.306-.306-.461a20.672,20.672,0,0,0-2.473-2.98c-.089-.09-.178-.18-.26-.256l-.021-.022-.221-.205h0l-.452-.414-.759-.615c-.1-.079-.21-.162-.328-.248s-.228-.166-.356-.252l-.146-.1c-.217-.148-.52-.327-.745-.468l.271.162-.281-.169h0l-5.9-3.429-5.886-3.437L60.7,76.565l-5.886-3.44-5.872-3.44-5.886-3.437-5.9-3.44-5.886-3.44-5.882-3.437L19.5,52.505h0c-.356-.194-.652-.36-.973-.511h-.05c-.2-.094-.406-.184-.631-.27l-.057-.025a5.639,5.639,0,0,0-.6-.209h-.05c-.11-.036-.271-.083-.463-.13l-.143-.036h-.071a7.668,7.668,0,0,0-2.761-.166h-.349c-.153.025-.314.054-.474.094s-.289.072-.406.108h-.043c-.274.079-.435.144-.474.158l-.239.1-.157.065c-.192.083-.281.122-.424.2L11.1,51.9l-.356.209-.474.277-.093.054-.1.068-.15.094-.107.072-.064.043-.16.115h0l-.164.122H9.4l-.018.018a6.535,6.535,0,0,0-.713.626l-.135.14-.135.148-.029.029h0c-.082.094-.175.2-.264.317s-.178.237-.264.36l-.093.133-.025.036h0c-.043.061-.082.122-.121.187-.11.176-.192.32-.246.421h0c-.032.058-.061.115-.089.173l-.068.14-.071.14c0,.022-.018.043-.025.061a3.361,3.361,0,0,0-.15.36c-.039.119-.125.331-.185.511a.32.32,0,0,0,0,.054v.036c-.064.191-.121.381-.16.551s-.064.3-.1.457l-.021.094c-.046.227-.086.457-.11.655,0,.126-.025.266-.039.414s-.021.223-.032.36c0,.238-.021.561-.029.8a.574.574,0,0,0,.253.525c0-5.736,4.03-8.053,8.957-5.171L74.35,89.93c4.931,2.879,8.907,9.874,8.907,15.607v27.18L83.2,151.342c0,2.271,0,4.577-.018,6.906v25.614l-.021,6.913c0,6.607-.036,12.911-.05,18.622v27.151c0,5.736-4.026,8.053-8.957,5.171a.567.567,0,0,0,.267.525c.481.266.759.41,1.044.543l.157.076a7.274,7.274,0,0,0,.713.284l.278.09.289.094.121.04h.061a7.765,7.765,0,0,0,3.057.277,6.206,6.206,0,0,0,.759-.119h.135c.143-.032.26-.061.356-.094h.1l.31-.1h.061l.477-.187a4.255,4.255,0,0,0,.438-.205l.068-.032.374-.209.474-.277c.121-.072.235-.148.356-.219l.086-.054.068-.05.164-.115h.021a6.768,6.768,0,0,0,.891-.774,1.238,1.238,0,0,0,.093-.1c.071-.072.143-.148.207-.223h0l.05-.061h0c.061-.068.118-.137.178-.212a7.129,7.129,0,0,0,.584-.842c.068-.108.128-.212.185-.317l.086-.162v-.025c.057-.112.114-.227.167-.36l.021-.047v-.032a.13.13,0,0,1,0-.032h0c.075-.169.143-.342.21-.525s.1-.27.146-.435v-.025h0c.061-.212.125-.446.182-.72a8.309,8.309,0,0,0,.157-.882h0c.036-.266.053-.443.068-.695v-.079c0-.212,0-.482.021-.72v-.1h0v-.018l.039-13.1.036-13.106.036-13.1.039-13.1.036-13.106.036-13.1.036-13.106.039-13.1.036-13.106.036-13.1h0ZM18.194,52.631h0Zm59.377,34.2ZM77.692,86.81Zm.139-.018ZM78.208,86.824Zm8.626,17.935-.068.043h0Zm.314-.216Zm.061,130.626Z" transform="translate(780.424 2141.651)" fill="#001764"/>
    <path id="Path_220" data-name="Path 220" d="M72.38,94.49c5.012,2.9,9.086,9.935,9.068,15.709q-.186,65.934-.358,131.875c-.018,5.775-4.106,8.1-9.129,5.2L12,212.665c-5.012-2.9-9.086-9.935-9.068-15.709q.186-65.934.383-131.875c0-5.771,4.1-8.109,9.118-5.2Z" transform="translate(782.577 2136.819)" fill="#707bbf"/>
    <path id="Path_221" data-name="Path 221" d="M97.186,484.46l-12.469-7.475c-.8-.462-1.457-.09-1.457.831a3.193,3.193,0,0,0,1.432,2.506L97.158,487.8c.8.462,1.457.089,1.461-.834A3.222,3.222,0,0,0,97.186,484.46Z" transform="translate(731.006 1868.365)" fill="#353b67"/>
    <path id="Path_222" data-name="Path 222" d="M78.429,121.265a16.611,16.611,0,0,1,7.518,13.006c-.1,36.395-.208,62.311-.308,98.706,0,4.779-3.4,6.709-7.558,4.3l-49.634-28.64a16.611,16.611,0,0,1-7.518-13.006c.1-36.395.208-62.293.311-98.706,0-4.779,3.4-6.709,7.554-4.3Z" transform="translate(771.021 2115.662)" fill="#e6ecff"/>
    <path id="Path_223" data-name="Path 223" d="M84.99,235.7c8.66,5.012,15.724-3.892,15.752-13.848s.072-24.788-15.62-33.846S69.395,193.78,69.37,203.736,76.337,230.694,84.99,235.7Z" transform="translate(739.923 2055.57)" fill="#707bbf"/>
    <path id="Path_224" data-name="Path 224" d="M88.21,332.667a19.114,19.114,0,0,0-6.315-10.081,1.79,1.79,0,0,0-2.127-.068c-3.337,2.177-9.874.326-14.1-2.112-4.5-2.61-11.6-8.875-14.664-15.308a1.811,1.811,0,0,0-1.124-.963c-1.718-.49-5.671-1.178-6.756,2.506s-2.95,10.024-3.755,12.784a1.744,1.744,0,0,0,.806,2.008l48.778,28.161a1.751,1.751,0,0,0,2.592-1.851C90.773,343.826,89.492,337.586,88.21,332.667Z" transform="translate(759.229 1979.459)" fill="#707bbf"/>
    <ellipse id="Ellipse_18" data-name="Ellipse 18" cx="7.933" cy="13.694" rx="7.933" ry="13.694" transform="matrix(0.865, -0.502, 0.502, 0.865, 810.712, 2306.929)" fill="#ed2623"/>
    <path id="Path_225" data-name="Path 225" d="M108.525,383.694a2.5,2.5,0,0,0-.8-.795.852.852,0,0,0-.985-.032L102.6,386.3l-.716-1.611a2.7,2.7,0,0,0-1.038-1.217,1.027,1.027,0,0,0-.716-.158c-.576.132-.716.963-.311,1.858L101.5,388.9a2.764,2.764,0,0,0,.992,1.2l.043.025a.848.848,0,0,0,.988.032l5.205-4.3C109.145,385.481,109.066,384.514,108.525,383.694Z" transform="translate(720.526 1928.751)" fill="#fff"/>
    <path id="Path_226" data-name="Path 226" d="M53.8,142.621l-10.182-5.878c-1.167-.673-2.119-.129-2.123,1.217l-.039,13.826a4.654,4.654,0,0,0,2.112,3.662c1.171.677,2.123.132,2.127-1.214l.032-11.392L53.79,147.5c1.171.677,2.123.136,2.127-1.21A4.654,4.654,0,0,0,53.8,142.621Z" transform="translate(757.841 2086.856)" fill="#001764"/>
    <path id="Path_227" data-name="Path 227" d="M53.424,281.331l-8.044-4.65.032-11.4a4.654,4.654,0,0,0-2.116-3.662c-1.167-.673-2.123-.129-2.127,1.217l-.039,13.826a4.654,4.654,0,0,0,2.1,3.662L53.41,286.2c1.174.677,2.127.136,2.13-1.214A4.654,4.654,0,0,0,53.424,281.331Z" transform="translate(758.053 2006.684)" fill="#001764"/>
    <path id="Path_228" data-name="Path 228" d="M157.355,202.359l-10.175-5.882c-1.171-.677-2.127-.136-2.13,1.214a4.654,4.654,0,0,0,2.13,3.666l8.059,4.654-.032,11.4a4.654,4.654,0,0,0,2.109,3.659c1.174.677,2.127.132,2.13-1.214l.039-13.826A4.654,4.654,0,0,0,157.355,202.359Z" transform="translate(691.337 2048.508)" fill="#001764"/>
    <path id="Path_229" data-name="Path 229" d="M156.908,337.783c-1.171-.673-2.123-.129-2.127,1.217l-.047,11.392-8.055-4.654c-1.174-.677-2.127-.136-2.13,1.21a4.654,4.654,0,0,0,2.116,3.662l10.175,5.875c1.171.677,2.123.132,2.148-1.214l.036-13.826a4.654,4.654,0,0,0-2.116-3.662Z" transform="translate(691.658 1957.789)" fill="#001764"/>
  </g>
</svg>
