<svg xmlns="http://www.w3.org/2000/svg" xmlns:xlink="http://www.w3.org/1999/xlink" width="226.611" height="62.55" viewBox="0 0 226.611 62.55">
  <defs>
    <clipPath id="clip-path">
      <path id="Path_189" data-name="Path 189" d="M65.17,41.432a31.269,31.269,0,1,1,0-.006Z" transform="translate(-2.62 -10.16)" fill="none"/>
    </clipPath>
  </defs>
  <g id="Group_81" data-name="Group 81" transform="translate(-746.389 -2035.461)">
    <g id="Group_53" data-name="Group 53" transform="translate(746.389 2035.461)">
      <g id="Group_51" data-name="Group 51">
        <g id="Group_48" data-name="Group 48" clip-path="url(#clip-path)">
          <rect id="Rectangle_54" data-name="Rectangle 54" width="31.988" height="67.91" transform="translate(-0.692 -2.683)" fill="#ee2924"/>
          <rect id="Rectangle_55" data-name="Rectangle 55" width="31.99" height="67.91" transform="translate(31.251 -2.683)" fill="#3951a3"/>
          <path id="Path_188" data-name="Path 188" d="M83.736,44.81c-3.288,1.011-5.231,2.614-5.754-.127-.771-4.083-7.265-12.148-9.1-13.347H70.69a17.423,17.423,0,0,1-1.133-6.62c.024-.169.045-.343.063-.528a5.349,5.349,0,0,1,.264-1.006A12.293,12.293,0,0,1,76.9,24.936c2.208,1.569,8.115,2.356,8.371-.586a3.148,3.148,0,0,0-2.6-3.547c-1.36-4.046-3.56-6.441-7.191-8.995-3.544-2.731-7.357-1.922-7.394-1.415-.063,1.088.758,1.534,1.82,1.925.94.338,3.647.2,4.753.6a15.6,15.6,0,0,1,7.78,7.838c-2.2-.528-8.348,1.027-10.529-.333-.356-.1-.879-.264-1.4-.459a2.746,2.746,0,0,0-2.707-2.4,2.775,2.775,0,0,0-2.6,1.825,1.93,1.93,0,0,0-.232.745,17.335,17.335,0,0,1-4.672.5c-1.584,0-4.669-.391-7,.063a15.581,15.581,0,0,1,7.743-7.777c1.112-.4,3.821-.264,4.753-.6,1.056-.391,1.883-.837,1.819-1.925-.029-.507-3.842-1.32-7.381,1.415-3.615,2.54-5.81,4.925-7.172,8.939-1.925.433-3.261,1.5-2.614,3.961.38,1.437,3.063,2.247,6.665.2a11.97,11.97,0,0,1,6.164-1.79c1.421.066,1.915.087,2.089.092a9.836,9.836,0,0,1-.967,8.12h1.946c.016.129.018.143.018.143s-4.811,4.188-6.99,8.165-1.65,6.758-3.341,6.66c-1.584-.5-6.129-2.406-6.866-.9a3.157,3.157,0,0,0,1.584,4.576c1.088.364,4.967,1.009,6.7-2.419l-.05,3.739H56.013s3.578,3.723,7.658-.647a.94.94,0,0,1,.177.177l-.037,4.661,1.368,1.246v5.546l1.093.032V72.855H69V62.239h1.157l.034-5.517,1.162-1.357V50.528h.277c4.022,4.109,7.682.541,7.682.541H77.918l-.053-3.1,1,1.056c.264.51,5.1,3.058,7.275-.528C87.045,47.491,86.6,43.928,83.736,44.81ZM65.012,36.685c1.5-3.354,1.73-3.7,1.73-3.7s.808-1.616,1.849.232c1.386,2.081,3.354,6.354,1.965,8.2C69.747,42,68.129,42,66.742,42S63.5,40.03,65.012,36.685ZM67.74,49.97a3.524,3.524,0,0,1-3.763-3.222,3.809,3.809,0,0,1,7.524,0,3.525,3.525,0,0,1-3.76,3.222Z" transform="translate(-36.569 -9.949)" fill="#fff"/>
        </g>
      </g>
      <g id="Group_49" data-name="Group 49" transform="translate(102.506 4.738)">
        <path id="Path_190" data-name="Path 190" d="M355.187,59.332l-8.351,13.262h-3.845L334.64,59.332h4.374l5.9,9.8,5.917-9.814Z" transform="translate(-334.64 -59.32)" fill="#ee2924"/>
        <path id="Path_191" data-name="Path 191" d="M394.38,59.35V72.612h-3.71V59.35Z" transform="translate(-368.389 -59.338)" fill="#ee2924"/>
        <path id="Path_192" data-name="Path 192" d="M408.14,72.607V59.345h12.868a4.43,4.43,0,0,1,3.229,1.229A4.176,4.176,0,0,1,425.5,63.7v.362a3.977,3.977,0,0,1-.911,2.593,4.681,4.681,0,0,1-2.406,1.563l3.543,4.374h-4.2L418.26,68.4h-6.406v4.207Zm12.395-9.989h-8.681v2.64h8.7a1.256,1.256,0,0,0,.895-.314,1.078,1.078,0,0,0,.334-.843v-.326a1.07,1.07,0,0,0-.342-.839A1.28,1.28,0,0,0,420.535,62.618Z" transform="translate(-378.913 -59.333)" fill="#ee2924"/>
        <path id="Path_193" data-name="Path 193" d="M472.958,62.623h-7.122v9.989h-3.718V62.623H455V59.35h17.962Z" transform="translate(-407.138 -59.338)" fill="#ee2924"/>
        <path id="Path_194" data-name="Path 194" d="M522.6,59.35v9.4a3.654,3.654,0,0,1-1.117,2.784,4.024,4.024,0,0,1-2.911,1.082h-9.218a4.04,4.04,0,0,1-2.915-1.082,3.638,3.638,0,0,1-1.141-2.784v-9.4h3.718v8.872a1.062,1.062,0,0,0,.322.8,1.109,1.109,0,0,0,.8.306h7.615a1.133,1.133,0,0,0,.8-.306,1.077,1.077,0,0,0,.326-.8V59.35Z" transform="translate(-437.432 -59.338)" fill="#ee2924"/>
        <path id="Path_195" data-name="Path 195" d="M563.508,59.35l8.351,13.262h-4.374l-1.5-2.465h-8.828l-1.483,2.465H551.3l8.351-13.262Zm-1.937,3.464L558.9,67.247h5.345Z" transform="translate(-465.144 -59.338)" fill="#ee2924"/>
        <path id="Path_196" data-name="Path 196" d="M611.1,59.35v9.981h11.93v3.281H607.39V59.35Z" transform="translate(-498.929 -59.338)" fill="#ee2924"/>
        <path id="Path_197" data-name="Path 197" d="M346.93,121.936l-4.792-7.675v7.675H338.42V108.69h4.171l5.6,9.1,5.615-9.1h4.167v13.246h-3.71v-7.675l-4.8,7.675Z" transform="translate(-336.917 -89.058)" fill="#3951a3"/>
        <path id="Path_198" data-name="Path 198" d="M404.184,108.666l8.351,13.262h-4.374l-1.5-2.461h-8.828l-1.459,2.446H392l8.351-13.262Zm-1.936,3.472-2.668,4.43h5.336Z" transform="translate(-369.19 -89.034)" fill="#3951a3"/>
        <path id="Path_199" data-name="Path 199" d="M459.612,121.936H446.271v-3.261h13.214a.434.434,0,0,0,.306-.111.374.374,0,0,0,.123-.306v-.946a.37.37,0,0,0-.123-.3.458.458,0,0,0-.306-.115H449.7a4.381,4.381,0,0,1-2.959-.907,3.181,3.181,0,0,1-1.058-2.557v-1.257a3.209,3.209,0,0,1,1.062-2.565,4.367,4.367,0,0,1,2.955-.919h12.864v3.281H449.838a.462.462,0,0,0-.31.107.421.421,0,0,0-.119.306v.931a.4.4,0,0,0,.119.3.43.43,0,0,0,.31.115h9.782a4.341,4.341,0,0,1,2.951.919,3.181,3.181,0,0,1,1.066,2.549v1.308a3.145,3.145,0,0,1-1.066,2.533A4.371,4.371,0,0,1,459.612,121.936Z" transform="translate(-401.522 -89.058)" fill="#3951a3"/>
        <path id="Path_200" data-name="Path 200" d="M500.868,108.69v5.169h3.638l5.46-5.169h5.209l-7.261,6.76,7.468,6.486h-5.213l-5.6-4.907h-3.7v4.907H497.15V108.69Z" transform="translate(-432.527 -89.058)" fill="#3951a3"/>
        <path id="Path_201" data-name="Path 201" d="M354.159,166.884H342.138v4.4H338.42V158h16.451v3.273H342.146v2.43h12.013Z" transform="translate(-336.917 -118.759)" fill="#ee2924"/>
        <path id="Path_202" data-name="Path 202" d="M389.848,158v13.282H386.13V158Z" transform="translate(-365.655 -118.759)" fill="#ee2924"/>
        <path id="Path_203" data-name="Path 203" d="M418.81,161.289H411.7v9.993h-3.718v-9.993H400.86V158h17.95Z" transform="translate(-374.527 -118.759)" fill="#ee2924"/>
      </g>
      <g id="Group_52" data-name="Group 52" transform="translate(82.003 4.232)">
        <g id="Group_50" data-name="Group 50">
          <rect id="Rectangle_56" data-name="Rectangle 56" width="0.656" height="26.847" transform="translate(0 26.182)" fill="#3951a3"/>
          <rect id="Rectangle_57" data-name="Rectangle 57" width="0.656" height="26.841" fill="#ee2924"/>
        </g>
      </g>
    </g>
  </g>
</svg>
